<svg width="586" height="187" viewBox="0 0 586 187" fill="none" xmlns="http://www.w3.org/2000/svg">
<circle cx="110" cy="60" r="60" fill="#4F2D7F" fill-opacity="0.8"/>
<circle cx="110" cy="137" r="50" fill="#4F2D7F" fill-opacity="0.8"/>
<circle cx="55" cy="100" r="55" fill="#4F2D7F" fill-opacity="0.8"/>
<path d="M205.48 66.375C205.48 66.5917 205.393 66.7867 205.22 66.96C205.09 67.09 204.917 67.155 204.7 67.155H190.335C190.118 67.155 190.01 67.2633 190.01 67.48V70.405C190.01 71.7483 190.378 72.8533 191.115 73.72C191.852 74.5867 192.805 75.02 193.975 75.02C194.972 75.02 195.817 74.7167 196.51 74.11C197.247 73.46 197.723 72.6367 197.94 71.64C198.07 71.2067 198.352 70.99 198.785 70.99L204.57 71.25C204.787 71.25 204.96 71.3367 205.09 71.51C205.263 71.64 205.328 71.835 205.285 72.095C204.982 75.1283 203.877 77.4683 201.97 79.115C200.063 80.7183 197.398 81.52 193.975 81.52C190.422 81.52 187.605 80.5883 185.525 78.725C183.488 76.8183 182.47 74.24 182.47 70.99V57.795C182.47 54.6317 183.488 52.0967 185.525 50.19C187.605 48.24 190.422 47.265 193.975 47.265C197.528 47.265 200.323 48.24 202.36 50.19C204.44 52.0967 205.48 54.6317 205.48 57.795V66.375ZM193.975 53.765C192.805 53.765 191.852 54.1983 191.115 55.065C190.378 55.9317 190.01 57.0367 190.01 58.38V61.305C190.01 61.5217 190.118 61.63 190.335 61.63H197.68C197.897 61.63 198.005 61.5217 198.005 61.305V58.38C198.005 56.9933 197.637 55.8883 196.9 55.065C196.163 54.1983 195.188 53.765 193.975 53.765ZM211.836 81C211.619 81 211.424 80.935 211.251 80.805C211.121 80.6317 211.056 80.4367 211.056 80.22V36.28C211.056 36.0633 211.121 35.89 211.251 35.76C211.424 35.5867 211.619 35.5 211.836 35.5H217.816C218.032 35.5 218.206 35.5867 218.336 35.76C218.509 35.89 218.596 36.0633 218.596 36.28V80.22C218.596 80.4367 218.509 80.6317 218.336 80.805C218.206 80.935 218.032 81 217.816 81H211.836ZM225.435 81C225.218 81 225.023 80.935 224.85 80.805C224.72 80.6317 224.655 80.4367 224.655 80.22V36.28C224.655 36.0633 224.72 35.89 224.85 35.76C225.023 35.5867 225.218 35.5 225.435 35.5H231.415C231.632 35.5 231.805 35.5867 231.935 35.76C232.108 35.89 232.195 36.0633 232.195 36.28V80.22C232.195 80.4367 232.108 80.6317 231.935 80.805C231.805 80.935 231.632 81 231.415 81H225.435ZM242.479 43.235C241.136 43.235 240.031 42.8017 239.164 41.935C238.298 41.0683 237.864 39.9633 237.864 38.62C237.864 37.2767 238.298 36.1717 239.164 35.305C240.031 34.4383 241.136 34.005 242.479 34.005C243.823 34.005 244.906 34.4383 245.729 35.305C246.596 36.1717 247.029 37.2767 247.029 38.62C247.029 39.9633 246.596 41.0683 245.729 41.935C244.863 42.8017 243.779 43.235 242.479 43.235ZM239.554 81C239.338 81 239.143 80.935 238.969 80.805C238.839 80.6317 238.774 80.4367 238.774 80.22V48.565C238.774 48.3483 238.839 48.175 238.969 48.045C239.143 47.8717 239.338 47.785 239.554 47.785H245.534C245.751 47.785 245.924 47.8717 246.054 48.045C246.228 48.175 246.314 48.3483 246.314 48.565V80.22C246.314 80.4367 246.228 80.6317 246.054 80.805C245.924 80.935 245.751 81 245.534 81H239.554ZM267.364 47.265C270.181 47.265 272.304 48.2183 273.734 50.125C275.207 51.9883 275.944 54.6533 275.944 58.12V80.22C275.944 80.4367 275.857 80.6317 275.684 80.805C275.554 80.935 275.381 81 275.164 81H269.184C268.967 81 268.772 80.935 268.599 80.805C268.469 80.6317 268.404 80.4367 268.404 80.22V58.705C268.404 57.145 268.079 55.9317 267.429 55.065C266.779 54.1983 265.847 53.765 264.634 53.765C263.377 53.765 262.402 54.22 261.709 55.13C261.016 56.04 260.669 57.2967 260.669 58.9V80.22C260.669 80.4367 260.582 80.6317 260.409 80.805C260.279 80.935 260.106 81 259.889 81H253.909C253.692 81 253.497 80.935 253.324 80.805C253.194 80.6317 253.129 80.4367 253.129 80.22V48.565C253.129 48.3483 253.194 48.175 253.324 48.045C253.497 47.8717 253.692 47.785 253.909 47.785H259.889C260.106 47.785 260.279 47.8717 260.409 48.045C260.582 48.175 260.669 48.3483 260.669 48.565V49.865C260.669 49.995 260.712 50.0817 260.799 50.125C260.929 50.125 261.059 50.0383 261.189 49.865C262.662 48.1317 264.721 47.265 267.364 47.265ZM286.309 43.235C284.965 43.235 283.86 42.8017 282.994 41.935C282.127 41.0683 281.694 39.9633 281.694 38.62C281.694 37.2767 282.127 36.1717 282.994 35.305C283.86 34.4383 284.965 34.005 286.309 34.005C287.652 34.005 288.735 34.4383 289.559 35.305C290.425 36.1717 290.859 37.2767 290.859 38.62C290.859 39.9633 290.425 41.0683 289.559 41.935C288.692 42.8017 287.609 43.235 286.309 43.235ZM283.384 81C283.167 81 282.972 80.935 282.799 80.805C282.669 80.6317 282.604 80.4367 282.604 80.22V48.565C282.604 48.3483 282.669 48.175 282.799 48.045C282.972 47.8717 283.167 47.785 283.384 47.785H289.364C289.58 47.785 289.754 47.8717 289.884 48.045C290.057 48.175 290.144 48.3483 290.144 48.565V80.22C290.144 80.4367 290.057 80.6317 289.884 80.805C289.754 80.935 289.58 81 289.364 81H283.384ZM297.738 81C297.522 81 297.327 80.935 297.153 80.805C297.023 80.6317 296.958 80.4367 296.958 80.22V36.28C296.958 36.0633 297.023 35.89 297.153 35.76C297.327 35.5867 297.522 35.5 297.738 35.5H303.718C303.935 35.5 304.108 35.5867 304.238 35.76C304.412 35.89 304.498 36.0633 304.498 36.28V59.42C304.498 59.5933 304.542 59.68 304.628 59.68C304.715 59.68 304.802 59.615 304.888 59.485L311.973 48.305C312.147 47.9583 312.45 47.785 312.883 47.785H319.123C319.427 47.785 319.622 47.8933 319.708 48.11C319.795 48.2833 319.752 48.5 319.578 48.76L312.818 58.965C312.732 59.1383 312.71 59.29 312.753 59.42L320.553 80.09C320.597 80.1767 320.618 80.285 320.618 80.415C320.618 80.805 320.38 81 319.903 81H313.728C313.295 81 313.013 80.7833 312.883 80.35L308.073 65.66C308.03 65.53 307.965 65.465 307.878 65.465C307.792 65.4217 307.727 65.465 307.683 65.595L304.628 70.145C304.542 70.3183 304.498 70.4483 304.498 70.535V80.22C304.498 80.4367 304.412 80.6317 304.238 80.805C304.108 80.935 303.935 81 303.718 81H297.738ZM335.636 81.52C332.039 81.52 329.201 80.5667 327.121 78.66C325.084 76.7533 324.066 74.175 324.066 70.925V57.86C324.066 54.6533 325.106 52.0967 327.186 50.19C329.266 48.24 332.083 47.265 335.636 47.265C339.233 47.265 342.071 48.24 344.151 50.19C346.231 52.0967 347.271 54.6533 347.271 57.86V70.925C347.271 74.175 346.231 76.7533 344.151 78.66C342.114 80.5667 339.276 81.52 335.636 81.52ZM335.636 74.955C336.849 74.955 337.824 74.5433 338.561 73.72C339.341 72.8533 339.731 71.7267 339.731 70.34V58.38C339.731 57.0367 339.341 55.9317 338.561 55.065C337.824 54.1983 336.849 53.765 335.636 53.765C334.423 53.765 333.448 54.1983 332.711 55.065C331.974 55.8883 331.606 56.9933 331.606 58.38V70.34C331.606 71.7267 331.974 72.8533 332.711 73.72C333.448 74.5433 334.423 74.955 335.636 74.955ZM363.498 81.39C360.074 81.39 357.344 80.5667 355.308 78.92C353.271 77.2733 352.253 75.0417 352.253 72.225V71.77C352.253 71.5533 352.318 71.38 352.448 71.25C352.621 71.0767 352.816 70.99 353.033 70.99H358.623C358.839 70.99 359.013 71.0767 359.143 71.25C359.316 71.38 359.403 71.5533 359.403 71.77V72.095C359.403 73.135 359.793 74.0017 360.573 74.695C361.396 75.3883 362.393 75.735 363.563 75.735C364.689 75.735 365.578 75.41 366.228 74.76C366.878 74.11 367.203 73.2867 367.203 72.29C367.203 71.4233 366.921 70.7083 366.358 70.145C365.794 69.5383 365.188 69.0833 364.538 68.78C363.888 68.4767 362.718 67.9783 361.028 67.285C358.558 66.3317 356.521 65.1183 354.918 63.645C353.358 62.1717 352.578 59.9833 352.578 57.08C352.578 54.0467 353.531 51.685 355.438 49.995C357.388 48.2617 360.009 47.395 363.303 47.395C366.683 47.395 369.348 48.305 371.298 50.125C373.291 51.9017 374.288 54.3067 374.288 57.34C374.288 57.5567 374.201 57.7517 374.028 57.925C373.898 58.055 373.724 58.12 373.508 58.12H368.048C367.831 58.12 367.636 58.055 367.463 57.925C367.333 57.7517 367.268 57.5567 367.268 57.34V56.95C367.268 55.91 366.899 55.0433 366.163 54.35C365.469 53.6567 364.581 53.31 363.498 53.31C362.371 53.31 361.461 53.6783 360.768 54.415C360.118 55.1083 359.793 55.9533 359.793 56.95C359.793 57.7733 360.053 58.4667 360.573 59.03C361.093 59.5933 361.678 60.0483 362.328 60.395C362.978 60.6983 364.061 61.175 365.578 61.825C367.398 62.5617 368.914 63.2983 370.128 64.035C371.384 64.7283 372.468 65.7467 373.378 67.09C374.331 68.39 374.808 70.015 374.808 71.965C374.808 74.8683 373.789 77.165 371.753 78.855C369.716 80.545 366.964 81.39 363.498 81.39Z" fill="#4F2D7F" fill-opacity="0.8"/>
<path d="M202 109.1C207.267 109.1 211.533 110.633 214.8 113.7C218.067 116.767 219.7 120.8 219.7 125.8V159.8C219.7 160.133 219.567 160.433 219.3 160.7C219.1 160.9 218.833 161 218.5 161H209.3C208.967 161 208.667 160.9 208.4 160.7C208.2 160.433 208.1 160.133 208.1 159.8V157.9C208.1 157.7 208.033 157.567 207.9 157.5C207.767 157.433 207.633 157.5 207.5 157.7C205.167 160.433 201.767 161.8 197.3 161.8C193.5 161.8 190.133 160.733 187.2 158.6C184.333 156.4 182.9 152.433 182.9 146.7C182.9 140.7 184.633 136.433 188.1 133.9C191.633 131.367 196.4 130.1 202.4 130.1H207.6C207.933 130.1 208.1 129.933 208.1 129.6V127C208.1 124.6 207.5 122.7 206.3 121.3C205.1 119.833 203.6 119.1 201.8 119.1C200.4 119.1 199.233 119.567 198.3 120.5C197.367 121.367 196.8 122.567 196.6 124.1C196.533 124.9 196.1 125.3 195.3 125.3H185.6C184.8 125.3 184.433 124.9 184.5 124.1C184.833 119.567 186.6 115.933 189.8 113.2C193.067 110.467 197.133 109.1 202 109.1ZM200.5 152.2C202.5 152.2 204.267 151.567 205.8 150.3C207.333 149.033 208.1 147.267 208.1 145V139.3C208.1 138.967 207.933 138.8 207.6 138.8H202.4C200.133 138.8 198.3 139.433 196.9 140.7C195.5 141.9 194.8 143.667 194.8 146C194.8 148.067 195.333 149.633 196.4 150.7C197.467 151.7 198.833 152.2 200.5 152.2ZM250.359 116.9C250.359 117.233 250.226 117.533 249.959 117.8C249.759 118 249.493 118.1 249.159 118.1H242.959C242.626 118.1 242.459 118.267 242.459 118.6V144.8C242.459 147.133 242.893 148.767 243.759 149.7C244.626 150.567 245.926 150.967 247.659 150.9H248.359C248.693 150.9 248.959 151.033 249.159 151.3C249.426 151.5 249.559 151.767 249.559 152.1V159.8C249.559 160.133 249.426 160.433 249.159 160.7C248.959 160.9 248.693 161 248.359 161H244.959C240.426 161 236.993 160.167 234.659 158.5C232.393 156.833 231.259 153.7 231.259 149.1V118.6C231.259 118.267 231.093 118.1 230.759 118.1H227.259C226.926 118.1 226.626 118 226.359 117.8C226.159 117.533 226.059 117.233 226.059 116.9V111.1C226.059 110.767 226.159 110.5 226.359 110.3C226.626 110.033 226.926 109.9 227.259 109.9H230.759C231.093 109.9 231.259 109.733 231.259 109.4V98.4C231.259 98.0667 231.359 97.8 231.559 97.6C231.826 97.3333 232.126 97.2 232.459 97.2H241.259C241.593 97.2 241.859 97.3333 242.059 97.6C242.326 97.8 242.459 98.0667 242.459 98.4V109.4C242.459 109.733 242.626 109.9 242.959 109.9H249.159C249.493 109.9 249.759 110.033 249.959 110.3C250.226 110.5 250.359 110.767 250.359 111.1V116.9ZM280.082 109.1C284.415 109.1 287.682 110.567 289.882 113.5C292.149 116.367 293.282 120.467 293.282 125.8V159.8C293.282 160.133 293.149 160.433 292.882 160.7C292.682 160.9 292.415 161 292.082 161H282.882C282.549 161 282.249 160.9 281.982 160.7C281.782 160.433 281.682 160.133 281.682 159.8V126.7C281.682 124.3 281.182 122.433 280.182 121.1C279.182 119.767 277.749 119.1 275.882 119.1C273.949 119.1 272.449 119.8 271.382 121.2C270.315 122.6 269.782 124.533 269.782 127V159.8C269.782 160.133 269.649 160.433 269.382 160.7C269.182 160.9 268.915 161 268.582 161H259.382C259.049 161 258.749 160.9 258.482 160.7C258.282 160.433 258.182 160.133 258.182 159.8V92.2C258.182 91.8667 258.282 91.6 258.482 91.4C258.749 91.1333 259.049 91 259.382 91H268.582C268.915 91 269.182 91.1333 269.382 91.4C269.649 91.6 269.782 91.8667 269.782 92.2V113.1C269.782 113.3 269.849 113.433 269.982 113.5C270.182 113.5 270.382 113.367 270.582 113.1C272.849 110.433 276.015 109.1 280.082 109.1ZM303.927 161C303.594 161 303.294 160.9 303.027 160.7C302.827 160.433 302.727 160.133 302.727 159.8V92.2C302.727 91.8667 302.827 91.6 303.027 91.4C303.294 91.1333 303.594 91 303.927 91H313.127C313.461 91 313.727 91.1333 313.927 91.4C314.194 91.6 314.327 91.8667 314.327 92.2V159.8C314.327 160.133 314.194 160.433 313.927 160.7C313.727 160.9 313.461 161 313.127 161H303.927ZM330.149 102.9C328.083 102.9 326.383 102.233 325.049 100.9C323.716 99.5667 323.049 97.8667 323.049 95.8C323.049 93.7333 323.716 92.0333 325.049 90.7C326.383 89.3667 328.083 88.7 330.149 88.7C332.216 88.7 333.883 89.3667 335.149 90.7C336.483 92.0333 337.149 93.7333 337.149 95.8C337.149 97.8667 336.483 99.5667 335.149 100.9C333.816 102.233 332.149 102.9 330.149 102.9ZM325.649 161C325.316 161 325.016 160.9 324.749 160.7C324.549 160.433 324.449 160.133 324.449 159.8V111.1C324.449 110.767 324.549 110.5 324.749 110.3C325.016 110.033 325.316 109.9 325.649 109.9H334.849C335.183 109.9 335.449 110.033 335.649 110.3C335.916 110.5 336.049 110.767 336.049 111.1V159.8C336.049 160.133 335.916 160.433 335.649 160.7C335.449 160.9 335.183 161 334.849 161H325.649ZM367.934 116.9C367.934 117.233 367.8 117.533 367.534 117.8C367.334 118 367.067 118.1 366.734 118.1H360.534C360.2 118.1 360.034 118.267 360.034 118.6V144.8C360.034 147.133 360.467 148.767 361.334 149.7C362.2 150.567 363.5 150.967 365.234 150.9H365.934C366.267 150.9 366.534 151.033 366.734 151.3C367 151.5 367.134 151.767 367.134 152.1V159.8C367.134 160.133 367 160.433 366.734 160.7C366.534 160.9 366.267 161 365.934 161H362.534C358 161 354.567 160.167 352.234 158.5C349.967 156.833 348.834 153.7 348.834 149.1V118.6C348.834 118.267 348.667 118.1 348.334 118.1H344.834C344.5 118.1 344.2 118 343.934 117.8C343.734 117.533 343.634 117.233 343.634 116.9V111.1C343.634 110.767 343.734 110.5 343.934 110.3C344.2 110.033 344.5 109.9 344.834 109.9H348.334C348.667 109.9 348.834 109.733 348.834 109.4V98.4C348.834 98.0667 348.934 97.8 349.134 97.6C349.4 97.3333 349.7 97.2 350.034 97.2H358.834C359.167 97.2 359.434 97.3333 359.634 97.6C359.9 97.8 360.034 98.0667 360.034 98.4V109.4C360.034 109.733 360.2 109.9 360.534 109.9H366.734C367.067 109.9 367.334 110.033 367.534 110.3C367.8 110.5 367.934 110.767 367.934 111.1V116.9ZM381.856 102.9C379.79 102.9 378.09 102.233 376.756 100.9C375.423 99.5667 374.756 97.8667 374.756 95.8C374.756 93.7333 375.423 92.0333 376.756 90.7C378.09 89.3667 379.79 88.7 381.856 88.7C383.923 88.7 385.59 89.3667 386.856 90.7C388.19 92.0333 388.856 93.7333 388.856 95.8C388.856 97.8667 388.19 99.5667 386.856 100.9C385.523 102.233 383.856 102.9 381.856 102.9ZM377.356 161C377.023 161 376.723 160.9 376.456 160.7C376.256 160.433 376.156 160.133 376.156 159.8V111.1C376.156 110.767 376.256 110.5 376.456 110.3C376.723 110.033 377.023 109.9 377.356 109.9H386.556C386.89 109.9 387.156 110.033 387.356 110.3C387.623 110.5 387.756 110.767 387.756 111.1V159.8C387.756 160.133 387.623 160.433 387.356 160.7C387.156 160.9 386.89 161 386.556 161H377.356ZM413.941 161.6C408.674 161.6 404.474 160.333 401.341 157.8C398.207 155.267 396.641 151.833 396.641 147.5V146.8C396.641 146.467 396.741 146.2 396.941 146C397.207 145.733 397.507 145.6 397.841 145.6H406.441C406.774 145.6 407.041 145.733 407.241 146C407.507 146.2 407.641 146.467 407.641 146.8V147.3C407.641 148.9 408.241 150.233 409.441 151.3C410.707 152.367 412.241 152.9 414.041 152.9C415.774 152.9 417.141 152.4 418.141 151.4C419.141 150.4 419.641 149.133 419.641 147.6C419.641 146.267 419.207 145.167 418.341 144.3C417.474 143.367 416.541 142.667 415.541 142.2C414.541 141.733 412.741 140.967 410.141 139.9C406.341 138.433 403.207 136.567 400.741 134.3C398.341 132.033 397.141 128.667 397.141 124.2C397.141 119.533 398.607 115.9 401.541 113.3C404.541 110.633 408.574 109.3 413.641 109.3C418.841 109.3 422.941 110.7 425.941 113.5C429.007 116.233 430.541 119.933 430.541 124.6C430.541 124.933 430.407 125.233 430.141 125.5C429.941 125.7 429.674 125.8 429.341 125.8H420.941C420.607 125.8 420.307 125.7 420.041 125.5C419.841 125.233 419.741 124.933 419.741 124.6V124C419.741 122.4 419.174 121.067 418.041 120C416.974 118.933 415.607 118.4 413.941 118.4C412.207 118.4 410.807 118.967 409.741 120.1C408.741 121.167 408.241 122.467 408.241 124C408.241 125.267 408.641 126.333 409.441 127.2C410.241 128.067 411.141 128.767 412.141 129.3C413.141 129.767 414.807 130.5 417.141 131.5C419.941 132.633 422.274 133.767 424.141 134.9C426.074 135.967 427.741 137.533 429.141 139.6C430.607 141.6 431.341 144.1 431.341 147.1C431.341 151.567 429.774 155.1 426.641 157.7C423.507 160.3 419.274 161.6 413.941 161.6ZM483.584 109.1C487.918 109.1 491.184 110.633 493.384 113.7C495.651 116.7 496.784 120.9 496.784 126.3V159.8C496.784 160.133 496.651 160.433 496.384 160.7C496.184 160.9 495.918 161 495.584 161H486.484C486.151 161 485.851 160.9 485.584 160.7C485.384 160.433 485.284 160.133 485.284 159.8V127.1C485.284 124.567 484.784 122.6 483.784 121.2C482.784 119.8 481.418 119.1 479.684 119.1C477.818 119.1 476.351 119.8 475.284 121.2C474.218 122.6 473.684 124.533 473.684 127V159.8C473.684 160.133 473.551 160.433 473.284 160.7C473.084 160.9 472.818 161 472.484 161H463.384C463.051 161 462.751 160.9 462.484 160.7C462.284 160.433 462.184 160.133 462.184 159.8V127.1C462.184 124.567 461.651 122.6 460.584 121.2C459.584 119.8 458.251 119.1 456.584 119.1C454.718 119.1 453.251 119.8 452.184 121.2C451.118 122.6 450.584 124.533 450.584 127V159.8C450.584 160.133 450.451 160.433 450.184 160.7C449.984 160.9 449.718 161 449.384 161H440.284C439.951 161 439.651 160.9 439.384 160.7C439.184 160.433 439.084 160.133 439.084 159.8V111.1C439.084 110.767 439.184 110.5 439.384 110.3C439.651 110.033 439.951 109.9 440.284 109.9H449.384C449.718 109.9 449.984 110.033 450.184 110.3C450.451 110.5 450.584 110.767 450.584 111.1V112.7C450.584 112.9 450.651 113.033 450.784 113.1C450.918 113.167 451.051 113.1 451.184 112.9C452.518 111.567 454.018 110.6 455.684 110C457.351 109.4 458.984 109.1 460.584 109.1C465.518 109.1 469.151 111.2 471.484 115.4C471.684 115.667 471.984 115.567 472.384 115.1C473.718 112.967 475.384 111.433 477.384 110.5C479.451 109.567 481.518 109.1 483.584 109.1ZM523.588 161.8C518.055 161.8 513.688 160.333 510.488 157.4C507.355 154.467 505.788 150.5 505.788 145.5V125.4C505.788 120.467 507.388 116.533 510.588 113.6C513.788 110.6 518.122 109.1 523.588 109.1C529.122 109.1 533.488 110.6 536.688 113.6C539.888 116.533 541.488 120.467 541.488 125.4V145.5C541.488 150.5 539.888 154.467 536.688 157.4C533.555 160.333 529.188 161.8 523.588 161.8ZM523.588 151.7C525.455 151.7 526.955 151.067 528.088 149.8C529.288 148.467 529.888 146.733 529.888 144.6V126.2C529.888 124.133 529.288 122.433 528.088 121.1C526.955 119.767 525.455 119.1 523.588 119.1C521.722 119.1 520.222 119.767 519.088 121.1C517.955 122.367 517.388 124.067 517.388 126.2V144.6C517.388 146.733 517.955 148.467 519.088 149.8C520.222 151.067 521.722 151.7 523.588 151.7ZM566.452 161.6C561.186 161.6 556.986 160.333 553.852 157.8C550.719 155.267 549.152 151.833 549.152 147.5V146.8C549.152 146.467 549.252 146.2 549.452 146C549.719 145.733 550.019 145.6 550.352 145.6H558.952C559.286 145.6 559.552 145.733 559.752 146C560.019 146.2 560.152 146.467 560.152 146.8V147.3C560.152 148.9 560.752 150.233 561.952 151.3C563.219 152.367 564.752 152.9 566.552 152.9C568.286 152.9 569.652 152.4 570.652 151.4C571.652 150.4 572.152 149.133 572.152 147.6C572.152 146.267 571.719 145.167 570.852 144.3C569.986 143.367 569.052 142.667 568.052 142.2C567.052 141.733 565.252 140.967 562.652 139.9C558.852 138.433 555.719 136.567 553.252 134.3C550.852 132.033 549.652 128.667 549.652 124.2C549.652 119.533 551.119 115.9 554.052 113.3C557.052 110.633 561.086 109.3 566.152 109.3C571.352 109.3 575.452 110.7 578.452 113.5C581.519 116.233 583.052 119.933 583.052 124.6C583.052 124.933 582.919 125.233 582.652 125.5C582.452 125.7 582.186 125.8 581.852 125.8H573.452C573.119 125.8 572.819 125.7 572.552 125.5C572.352 125.233 572.252 124.933 572.252 124.6V124C572.252 122.4 571.686 121.067 570.552 120C569.486 118.933 568.119 118.4 566.452 118.4C564.719 118.4 563.319 118.967 562.252 120.1C561.252 121.167 560.752 122.467 560.752 124C560.752 125.267 561.152 126.333 561.952 127.2C562.752 128.067 563.652 128.767 564.652 129.3C565.652 129.767 567.319 130.5 569.652 131.5C572.452 132.633 574.786 133.767 576.652 134.9C578.586 135.967 580.252 137.533 581.652 139.6C583.119 141.6 583.852 144.1 583.852 147.1C583.852 151.567 582.286 155.1 579.152 157.7C576.019 160.3 571.786 161.6 566.452 161.6Z" fill="#4F2D7F"/>
</svg>
